<svg xmlns="http://www.w3.org/2000/svg" width="512" height="512" viewBox="0 0 512 512">
  <defs>
    <linearGradient id="bg" x1="0%" y1="0%" x2="100%" y2="100%">
      <stop offset="0%" style="stop-color:#3b82f6"/>
      <stop offset="100%" style="stop-color:#2563eb"/>
    </linearGradient>
  </defs>
  <rect width="512" height="512" rx="80" fill="url(#bg)"/>
  <path d="M144 288a10.67 10.67 0 0 1-8.32-17.44l105.6-108.8a5.28 5.28 0 0 1 9.12 4.96l-20.48 64.16A10.67 10.67 0 0 0 140.08 245.28h74.72a10.67 10.67 0 0 1 8.32 17.44l-105.6 108.8a5.28 5.28 0 0 1-9.12-4.96l20.48-64.16A10.67 10.67 0 0 0 224 288z" transform="translate(112, 0)" fill="white"/>
</svg>
