<svg xmlns="http://www.w3.org/2000/svg" width="32" height="32" viewBox="0 0 32 32">
  <defs>
    <linearGradient id="bg" x1="0" y1="0" x2="1" y2="1">
      <stop offset="0%" stop-color="#3b82f6"/>
      <stop offset="100%" stop-color="#2563eb"/>
    </linearGradient>
  </defs>
  <rect width="32" height="32" rx="8" fill="url(#bg)"/>
  <path d="M9 18a.67.67 0 0 1-.52-1.09l6.6-6.8a.33.33 0 0 1 .57.31l-1.28 4.01A.67.67 0 0 0 15 15.33h4.67a.67.67 0 0 1 .52 1.09l-6.6 6.8a.33.33 0 0 1-.57-.31l1.28-4.01A.67.67 0 0 0 14 18z" fill="white"/>
</svg>
